<svg width="495" height="495" viewBox="0 0 495 495" fill="none" xmlns="http://www.w3.org/2000/svg">
	<path d="M446.455 172.251L490.847 123.09L426.036 109.411L393 52V211.088L453.474 238.118L446.455 172.251Z" fill="#FFDE55"/>
	<path id="star-light-big" d="M359.811 109.411L295 123.09L339.393 172.251L332.375 238.118L392.847 211.088V52L359.811 109.411Z" fill="#FFEB99"/>
	<path d="M131.75 247.613C131.75 156.023 181.54 76.1031 255.49 33.3031C227.9 28.2031 198.2 28.8431 168.01 36.3831C77.32 59.0131 8 145.093 8 247.613C8 350.133 77.32 436.213 168.01 458.843C198.2 466.383 227.9 467.023 255.49 461.923C181.54 419.123 131.75 339.203 131.75 247.613Z" fill="#FFDE55"/>
	<path d="M490.216 342.579L457.992 335.777L441.565 307.228L441.566 386.332L471.637 399.771L468.144 367.021L490.216 342.579Z" fill="#FFDE55"/>
	<path id="star-light-small" d="M425.138 335.777L392.914 342.579L414.987 367.022L411.498 399.771L441.566 386.332L441.565 307.228L425.138 335.777Z" fill="#FFEB99"/>
</svg>
